<?xml version="1.0" encoding="utf-8"?>
<!-- Generator: Adobe Illustrator 24.0.1, SVG Export Plug-In . SVG Version: 6.00 Build 0)  -->
<svg version="1.1" id="Camada_1" xmlns="http://www.w3.org/2000/svg" xmlns:xlink="http://www.w3.org/1999/xlink" x="0px" y="0px"
	 viewBox="0 0 595.3 595.3" style="enable-background:new 0 0 595.3 595.3;" xml:space="preserve">
<style type="text/css">
	.st0{fill:#DB6A5A;}
	.st1{fill:#DD6A5A;}
	.st2{fill:none;stroke:#DD6A5A;stroke-width:46.7693;stroke-linecap:round;stroke-miterlimit:10;}
</style>
<circle class="st0" cx="190.1" cy="221.3" r="45.1"/>
<circle class="st0" cx="406.2" cy="221.3" r="45.1"/>
<path class="st1" d="M298.2,595.3c-79.4,0-154-30.9-210.1-87s-87-130.7-87-210.1c0-79.4,30.9-154,87-210.1s130.7-87,210.1-87
	c79.4,0,154,30.9,210.1,87s87,130.7,87,210.1c0,79.4-30.9,154-87,210.1S377.5,595.3,298.2,595.3z M298.2,47.8
	c-138,0-250.3,112.3-250.3,250.3s112.3,250.3,250.3,250.3s250.3-112.3,250.3-250.3S436.2,47.8,298.2,47.8z"/>
<path class="st2" d="M490.7,309.8c-33.7,78-110.9,128.3-195.4,127c-82.7-1.2-157.1-50.6-189.7-127"/>
</svg>
